<svg xmlns="http://www.w3.org/2000/svg" version="1.1" xmlns:xlink="http://www.w3.org/1999/xlink" xmlns:svgjs="http://svgjs.dev/svgjs" width="128" height="128" viewBox="0 0 128 128"><g transform="matrix(0.8046875,0,0,0.8046875,12.333870967741937,12.333870967741937)"><svg viewBox="0 0 155 155" data-background-color="#ffffff" preserveAspectRatio="xMidYMid meet" height="128" width="128" xmlns="http://www.w3.org/2000/svg" xmlns:xlink="http://www.w3.org/1999/xlink"><g id="tight-bounds" transform="matrix(1,0,0,1,0.25,0.25)"><svg viewBox="0 0 154.5 154.5" height="154.5" width="154.5"><g><svg></svg></g><g><svg viewBox="0 0 154.5 154.5" height="154.5" width="154.5"><g transform="matrix(1,0,0,1,49.400362322727275,47.746371)"><svg viewBox="0 0 55.699275354545456 59.00725799999999" height="59.00725799999999" width="55.699275354545456"><g><svg viewBox="0 0 55.699275354545456 59.00725799999999" height="59.00725799999999" width="55.699275354545456"><g><svg viewBox="0 0 55.699275354545456 59.00725799999999" height="59.00725799999999" width="55.699275354545456"><g><svg viewBox="0 0 55.699275354545456 59.00725799999999" height="59.00725799999999" width="55.699275354545456"><g><svg viewBox="0 0 55.699275354545456 59.00725799999999" height="59.00725799999999" width="55.699275354545456"><g transform="matrix(1,0,0,1,0,0)"><svg width="55.699275354545456" viewBox="1.1 -33 31.15 33" height="59.00725799999999" data-palette-color="#010c80"><g class="undefined-text-0" data-fill-palette-color="primary" id="text-0"><path d="M13.55 0L1.1 0 1.1-0.5 2.15-0.9Q3.15-1.25 3.45-1.85 3.75-2.45 3.75-3.4L3.75-3.4 3.75-29.55Q3.75-30.55 3.45-31.15 3.15-31.75 2.15-32.1L2.15-32.1 1.1-32.5 1.1-33 13.55-33 13.55-32.5 12.45-32.05Q11.6-31.75 11.3-31.15 11-30.55 11-29.5L11-29.5 11-3.35Q11-2.35 11.33-1.8 11.65-1.25 12.6-0.9L12.6-0.9 13.55-0.5 13.55 0ZM32.25 0L19.55 0 19.55-0.5 20.2-0.7Q21.2-1 21.25-1.7 21.3-2.4 20.65-3.3L20.65-3.3 11.05-16.95 23.7-29.85Q24.4-30.55 24.48-31.2 24.55-31.85 23.5-32.2L23.5-32.2 22.65-32.5 22.65-33 29.95-33 29.95-32.5 28.65-32.1Q27.55-31.75 26.9-31.25 26.25-30.75 25.4-29.9L25.4-29.9 16.45-20.75 28.2-3.6Q28.95-2.5 29.63-1.8 30.3-1.1 31.55-0.7L31.55-0.7 32.25-0.5 32.25 0Z" fill="#ffffff" data-fill-palette-color="primary"></path></g></svg></g></svg></g></svg></g></svg></g></svg></g></svg></g><path d="M49.4 41.746L49.4 1 105.1 1 105.1 41.746 99.778 41.746 99.778 6.321 54.722 6.321 54.722 41.746 49.4 41.746M49.4 112.754L49.4 153.5 105.1 153.5 105.1 112.754 99.778 112.754 99.778 148.179 54.722 148.179 54.722 112.754 49.4 112.754" fill="#ffffff" stroke="transparent" data-fill-palette-color="primary"></path></svg></g><defs></defs></svg><rect width="154.5" height="154.5" fill="none" stroke="none" visibility="hidden"></rect></g></svg></g></svg>